<svg xmlns="http://www.w3.org/2000/svg" xmlns:xlink="http://www.w3.org/1999/xlink" width="500" zoomAndPan="magnify" viewBox="0 0 375 374.999991" height="500" preserveAspectRatio="xMidYMid meet" version="1.0"><defs><g/></defs><g fill="#0f1935" fill-opacity="1"><g transform="translate(55.98047, 209.387228)"><g><path d="M 49.890625 -61.515625 C 50.066406 -61.515625 50.15625 -61.457031 50.15625 -61.34375 C 50.15625 -61.164062 50.066406 -61.078125 49.890625 -61.078125 L 40.75 -61.078125 C 41.976562 -60.609375 42.941406 -59.828125 43.640625 -58.734375 C 44.347656 -57.648438 44.703125 -56.460938 44.703125 -55.171875 C 44.765625 -53.941406 44.441406 -52.828125 43.734375 -51.828125 L 11.265625 -3.875 C 11.023438 -3.457031 10.878906 -3.015625 10.828125 -2.546875 C 10.828125 -1.898438 11.0625 -1.359375 11.53125 -0.921875 C 12 -0.484375 12.554688 -0.265625 13.203125 -0.265625 L 26.578125 -0.265625 C 31.035156 -0.265625 34.476562 -0.554688 36.90625 -1.140625 C 39.34375 -1.734375 41.101562 -2.425781 42.1875 -3.21875 C 43.28125 -4.007812 43.972656 -4.726562 44.265625 -5.375 C 44.328125 -5.425781 44.382812 -5.484375 44.4375 -5.546875 C 44.5 -5.546875 44.554688 -5.546875 44.609375 -5.546875 C 44.671875 -5.484375 44.703125 -5.425781 44.703125 -5.375 C 44.765625 -5.3125 44.765625 -5.25 44.703125 -5.1875 L 42.15625 0.09375 C 42.15625 0.207031 42.09375 0.265625 41.96875 0.265625 L 1.671875 0.265625 C 1.609375 0.265625 1.550781 0.234375 1.5 0.171875 C 1.4375 0.117188 1.40625 0.0625 1.40625 0 C 1.40625 -0.0625 1.4375 -0.117188 1.5 -0.171875 C 1.550781 -0.234375 1.609375 -0.265625 1.671875 -0.265625 L 10.828125 -0.265625 C 9.585938 -0.734375 8.613281 -1.492188 7.90625 -2.546875 C 7.207031 -3.609375 6.859375 -4.785156 6.859375 -6.078125 C 6.804688 -7.304688 7.101562 -8.445312 7.75 -9.5 L 40.21875 -57.375 C 40.507812 -57.78125 40.6875 -58.25 40.75 -58.78125 C 40.75 -59.425781 40.515625 -59.96875 40.046875 -60.40625 C 39.578125 -60.851562 39.019531 -61.078125 38.375 -61.078125 L 24.984375 -61.078125 C 20.523438 -61.078125 17.078125 -60.78125 14.640625 -60.1875 C 12.210938 -59.601562 10.457031 -58.898438 9.375 -58.078125 C 8.289062 -57.253906 7.597656 -56.519531 7.296875 -55.875 C 7.242188 -55.820312 7.160156 -55.796875 7.046875 -55.796875 C 7.046875 -55.796875 7.015625 -55.796875 6.953125 -55.796875 C 6.890625 -55.847656 6.859375 -55.90625 6.859375 -55.96875 C 6.804688 -56.03125 6.804688 -56.085938 6.859375 -56.140625 L 9.421875 -61.421875 C 9.421875 -61.484375 9.476562 -61.515625 9.59375 -61.515625 Z M 49.890625 -61.515625 "/></g></g></g><g fill="#0f1935" fill-opacity="1"><g transform="translate(107.546193, 209.387228)"><g><path d="M 14.515625 -10.296875 C 14.515625 -8.003906 13.828125 -5.921875 12.453125 -4.046875 C 11.078125 -2.171875 9.273438 -0.878906 7.046875 -0.171875 L 19.015625 -0.265625 C 19.179688 -0.265625 19.265625 -0.175781 19.265625 0 C 19.265625 0.0625 19.238281 0.117188 19.1875 0.171875 C 19.1875 0.234375 19.15625 0.265625 19.09375 0.265625 L 3.953125 0.265625 C 3.898438 0.265625 3.84375 0.234375 3.78125 0.171875 C 3.726562 0.117188 3.703125 0.0625 3.703125 0 C 3.703125 -0.0625 3.726562 -0.09375 3.78125 -0.09375 L 3.78125 -0.171875 C 3.78125 -0.171875 3.8125 -0.171875 3.875 -0.171875 C 3.875 -0.171875 3.898438 -0.171875 3.953125 -0.171875 C 5.191406 -0.171875 6.25 -0.625 7.125 -1.53125 C 8.007812 -2.445312 8.453125 -3.519531 8.453125 -4.75 L 8.453125 -50.953125 C 8.453125 -53.296875 9.140625 -55.390625 10.515625 -57.234375 C 11.890625 -59.085938 13.691406 -60.367188 15.921875 -61.078125 L 3.953125 -61.078125 C 3.785156 -61.078125 3.703125 -61.164062 3.703125 -61.34375 C 3.703125 -61.457031 3.785156 -61.515625 3.953125 -61.515625 L 19.015625 -61.515625 C 19.179688 -61.515625 19.265625 -61.457031 19.265625 -61.34375 C 19.265625 -61.164062 19.179688 -61.078125 19.015625 -61.078125 C 18.953125 -61.078125 18.890625 -61.078125 18.828125 -61.078125 C 18.773438 -61.078125 18.6875 -61.078125 18.5625 -61.078125 C 17.394531 -60.953125 16.425781 -60.445312 15.65625 -59.5625 C 14.894531 -58.6875 14.515625 -57.664062 14.515625 -56.5 Z M 14.515625 -10.296875 "/></g></g></g><g fill="#0f1935" fill-opacity="1"><g transform="translate(130.601173, 209.387228)"><g><path d="M 65.125 -0.265625 C 65.238281 -0.265625 65.328125 -0.175781 65.390625 0 C 65.390625 0.175781 65.300781 0.265625 65.125 0.265625 L 49.984375 0.265625 C 49.804688 0.265625 49.71875 0.175781 49.71875 0 C 49.71875 -0.175781 49.804688 -0.265625 49.984375 -0.265625 C 50.859375 -0.265625 51.617188 -0.570312 52.265625 -1.1875 C 52.910156 -1.800781 53.234375 -2.578125 53.234375 -3.515625 C 53.234375 -4.109375 53.085938 -4.640625 52.796875 -5.109375 L 46.03125 -20.59375 C 44.851562 -23.226562 43.0625 -25.320312 40.65625 -26.875 C 38.25 -28.4375 35.609375 -29.21875 32.734375 -29.21875 C 30.097656 -29.21875 27.675781 -28.570312 25.46875 -27.28125 C 23.269531 -25.988281 21.523438 -24.242188 20.234375 -22.046875 C 18.941406 -19.847656 18.296875 -17.425781 18.296875 -14.78125 C 18.296875 -12.082031 18.941406 -9.632812 20.234375 -7.4375 C 21.523438 -5.238281 23.269531 -3.492188 25.46875 -2.203125 C 27.675781 -0.910156 30.097656 -0.265625 32.734375 -0.265625 C 32.910156 -0.265625 33 -0.175781 33 0 C 33 0.175781 32.910156 0.265625 32.734375 0.265625 L 0.796875 0.265625 C 0.617188 0.265625 0.53125 0.175781 0.53125 0 C 0.53125 -0.175781 0.617188 -0.265625 0.796875 -0.265625 C 3.023438 -0.265625 5.078125 -0.878906 6.953125 -2.109375 C 8.828125 -3.335938 10.207031 -4.984375 11.09375 -7.046875 L 33.703125 -61.953125 L 33.875 -62.296875 C 33.875 -62.359375 33.90625 -62.390625 33.96875 -62.390625 C 33.96875 -62.390625 33.96875 -62.421875 33.96875 -62.484375 C 34.03125 -62.484375 34.0625 -62.484375 34.0625 -62.484375 C 34.113281 -62.484375 34.171875 -62.484375 34.234375 -62.484375 C 34.234375 -62.484375 34.234375 -62.453125 34.234375 -62.390625 C 34.285156 -62.390625 34.3125 -62.359375 34.3125 -62.296875 L 56.9375 -10.640625 C 57.40625 -9.648438 57.640625 -8.597656 57.640625 -7.484375 C 57.640625 -5.835938 57.179688 -4.351562 56.265625 -3.03125 C 55.359375 -1.71875 54.144531 -0.796875 52.625 -0.265625 Z M 32.734375 -29.75 C 35.078125 -29.75 37.273438 -29.234375 39.328125 -28.203125 C 41.390625 -27.171875 43.125 -25.75 44.53125 -23.9375 L 31.15625 -54.5625 L 11.53125 -6.953125 C 11.53125 -6.890625 11.53125 -6.859375 11.53125 -6.859375 C 11.46875 -6.804688 11.46875 -6.804688 11.53125 -6.859375 L 9.234375 -1.5 C 9.234375 -1.375 9.175781 -1.3125 9.0625 -1.3125 C 9 -1.3125 8.96875 -1.3125 8.96875 -1.3125 C 8.800781 -1.375 8.742188 -1.492188 8.796875 -1.671875 L 9.859375 -4.140625 C 8.328125 -2.203125 6.390625 -0.910156 4.046875 -0.265625 L 29.046875 -0.265625 C 25.753906 -1.085938 23.050781 -2.847656 20.9375 -5.546875 C 18.832031 -8.242188 17.78125 -11.296875 17.78125 -14.703125 C 17.78125 -17.453125 18.453125 -19.972656 19.796875 -22.265625 C 21.148438 -24.554688 22.953125 -26.375 25.203125 -27.71875 C 27.460938 -29.070312 29.972656 -29.75 32.734375 -29.75 Z M 32.734375 -29.75 "/></g></g></g><g fill="#0f1935" fill-opacity="1"><g transform="translate(196.686256, 209.387228)"><g><path d="M 54.390625 -0.265625 C 54.503906 -0.265625 54.5625 -0.234375 54.5625 -0.171875 C 54.613281 -0.117188 54.640625 -0.0625 54.640625 0 C 54.640625 0.175781 54.554688 0.265625 54.390625 0.265625 L 39.34375 0.265625 C 39.164062 0.265625 39.078125 0.175781 39.078125 0 C 39.078125 -0.175781 39.164062 -0.265625 39.34375 -0.265625 C 39.976562 -0.265625 40.515625 -0.484375 40.953125 -0.921875 C 41.398438 -1.359375 41.625 -1.898438 41.625 -2.546875 C 41.625 -3.015625 41.476562 -3.457031 41.1875 -3.875 L 26.75 -19.96875 C 26.75 -20.03125 26.75 -20.0625 26.75 -20.0625 C 26.050781 -21.0625 25.726562 -22.175781 25.78125 -23.40625 C 25.78125 -24.695312 26.160156 -25.882812 26.921875 -26.96875 C 27.691406 -28.050781 28.691406 -28.828125 29.921875 -29.296875 C 29.503906 -29.242188 29.125 -29.21875 28.78125 -29.21875 C 26.132812 -29.21875 23.738281 -28.585938 21.59375 -27.328125 C 19.457031 -26.066406 17.742188 -24.347656 16.453125 -22.171875 C 15.160156 -20.003906 14.515625 -17.628906 14.515625 -15.046875 L 14.515625 -10.296875 C 14.515625 -8.003906 13.828125 -5.921875 12.453125 -4.046875 C 11.078125 -2.171875 9.273438 -0.878906 7.046875 -0.171875 L 19.09375 -0.265625 C 19.207031 -0.265625 19.265625 -0.175781 19.265625 0 C 19.265625 0.0625 19.238281 0.117188 19.1875 0.171875 C 19.1875 0.234375 19.15625 0.265625 19.09375 0.265625 L 3.953125 0.265625 C 3.898438 0.265625 3.84375 0.234375 3.78125 0.171875 C 3.726562 0.117188 3.703125 0.0625 3.703125 0 C 3.703125 -0.0625 3.726562 -0.09375 3.78125 -0.09375 L 3.78125 -0.171875 C 3.78125 -0.171875 3.8125 -0.171875 3.875 -0.171875 C 3.875 -0.171875 3.898438 -0.171875 3.953125 -0.171875 C 5.191406 -0.171875 6.25 -0.625 7.125 -1.53125 C 8.007812 -2.445312 8.453125 -3.519531 8.453125 -4.75 L 8.453125 -50.953125 C 8.453125 -53.296875 9.140625 -55.390625 10.515625 -57.234375 C 11.890625 -59.085938 13.691406 -60.367188 15.921875 -61.078125 L 3.953125 -61.078125 C 3.785156 -61.078125 3.703125 -61.164062 3.703125 -61.34375 C 3.703125 -61.457031 3.785156 -61.515625 3.953125 -61.515625 L 32.125 -61.515625 C 35.113281 -61.515625 37.820312 -60.796875 40.25 -59.359375 C 42.6875 -57.921875 44.640625 -55.984375 46.109375 -53.546875 C 47.578125 -51.109375 48.3125 -48.394531 48.3125 -45.40625 C 48.3125 -42.414062 47.578125 -39.703125 46.109375 -37.265625 C 44.640625 -34.828125 42.6875 -32.875 40.25 -31.40625 C 37.820312 -29.945312 35.113281 -29.21875 32.125 -29.21875 C 31.476562 -29.21875 30.929688 -28.992188 30.484375 -28.546875 C 30.046875 -28.109375 29.828125 -27.566406 29.828125 -26.921875 C 29.828125 -26.453125 29.972656 -26.015625 30.265625 -25.609375 L 44.703125 -9.5 C 44.640625 -9.5 44.640625 -9.5 44.703125 -9.5 C 44.703125 -9.445312 44.703125 -9.445312 44.703125 -9.5 C 45.410156 -8.445312 45.734375 -7.304688 45.671875 -6.078125 C 45.671875 -4.785156 45.300781 -3.609375 44.5625 -2.546875 C 43.832031 -1.492188 42.882812 -0.734375 41.71875 -0.265625 Z M 14.515625 -56.5 L 14.515625 -18.75 C 15.335938 -21.96875 17.066406 -24.601562 19.703125 -26.65625 C 22.347656 -28.71875 25.34375 -29.75 28.6875 -29.75 C 30.976562 -29.75 33.046875 -30.453125 34.890625 -31.859375 C 36.734375 -33.265625 38.210938 -35.15625 39.328125 -37.53125 C 40.453125 -39.90625 41.015625 -42.53125 41.015625 -45.40625 C 41.015625 -48.28125 40.453125 -50.90625 39.328125 -53.28125 C 38.210938 -55.65625 36.734375 -57.546875 34.890625 -58.953125 C 33.046875 -60.367188 30.976562 -61.078125 28.6875 -61.078125 L 19.015625 -61.078125 C 18.953125 -61.078125 18.875 -61.078125 18.78125 -61.078125 C 18.695312 -61.078125 18.625 -61.078125 18.5625 -61.078125 C 17.394531 -60.953125 16.425781 -60.445312 15.65625 -59.5625 C 14.894531 -58.6875 14.515625 -57.664062 14.515625 -56.5 Z M 14.515625 -56.5 "/></g></g></g><g fill="#0f1935" fill-opacity="1"><g transform="translate(252.91579, 209.387228)"><g><path d="M 65.125 -0.265625 C 65.238281 -0.265625 65.328125 -0.175781 65.390625 0 C 65.390625 0.175781 65.300781 0.265625 65.125 0.265625 L 49.984375 0.265625 C 49.804688 0.265625 49.71875 0.175781 49.71875 0 C 49.71875 -0.175781 49.804688 -0.265625 49.984375 -0.265625 C 50.859375 -0.265625 51.617188 -0.570312 52.265625 -1.1875 C 52.910156 -1.800781 53.234375 -2.578125 53.234375 -3.515625 C 53.234375 -4.109375 53.085938 -4.640625 52.796875 -5.109375 L 46.03125 -20.59375 C 44.851562 -23.226562 43.0625 -25.320312 40.65625 -26.875 C 38.25 -28.4375 35.609375 -29.21875 32.734375 -29.21875 C 30.097656 -29.21875 27.675781 -28.570312 25.46875 -27.28125 C 23.269531 -25.988281 21.523438 -24.242188 20.234375 -22.046875 C 18.941406 -19.847656 18.296875 -17.425781 18.296875 -14.78125 C 18.296875 -12.082031 18.941406 -9.632812 20.234375 -7.4375 C 21.523438 -5.238281 23.269531 -3.492188 25.46875 -2.203125 C 27.675781 -0.910156 30.097656 -0.265625 32.734375 -0.265625 C 32.910156 -0.265625 33 -0.175781 33 0 C 33 0.175781 32.910156 0.265625 32.734375 0.265625 L 0.796875 0.265625 C 0.617188 0.265625 0.53125 0.175781 0.53125 0 C 0.53125 -0.175781 0.617188 -0.265625 0.796875 -0.265625 C 3.023438 -0.265625 5.078125 -0.878906 6.953125 -2.109375 C 8.828125 -3.335938 10.207031 -4.984375 11.09375 -7.046875 L 33.703125 -61.953125 L 33.875 -62.296875 C 33.875 -62.359375 33.90625 -62.390625 33.96875 -62.390625 C 33.96875 -62.390625 33.96875 -62.421875 33.96875 -62.484375 C 34.03125 -62.484375 34.0625 -62.484375 34.0625 -62.484375 C 34.113281 -62.484375 34.171875 -62.484375 34.234375 -62.484375 C 34.234375 -62.484375 34.234375 -62.453125 34.234375 -62.390625 C 34.285156 -62.390625 34.3125 -62.359375 34.3125 -62.296875 L 56.9375 -10.640625 C 57.40625 -9.648438 57.640625 -8.597656 57.640625 -7.484375 C 57.640625 -5.835938 57.179688 -4.351562 56.265625 -3.03125 C 55.359375 -1.71875 54.144531 -0.796875 52.625 -0.265625 Z M 32.734375 -29.75 C 35.078125 -29.75 37.273438 -29.234375 39.328125 -28.203125 C 41.390625 -27.171875 43.125 -25.75 44.53125 -23.9375 L 31.15625 -54.5625 L 11.53125 -6.953125 C 11.53125 -6.890625 11.53125 -6.859375 11.53125 -6.859375 C 11.46875 -6.804688 11.46875 -6.804688 11.53125 -6.859375 L 9.234375 -1.5 C 9.234375 -1.375 9.175781 -1.3125 9.0625 -1.3125 C 9 -1.3125 8.96875 -1.3125 8.96875 -1.3125 C 8.800781 -1.375 8.742188 -1.492188 8.796875 -1.671875 L 9.859375 -4.140625 C 8.328125 -2.203125 6.390625 -0.910156 4.046875 -0.265625 L 29.046875 -0.265625 C 25.753906 -1.085938 23.050781 -2.847656 20.9375 -5.546875 C 18.832031 -8.242188 17.78125 -11.296875 17.78125 -14.703125 C 17.78125 -17.453125 18.453125 -19.972656 19.796875 -22.265625 C 21.148438 -24.554688 22.953125 -26.375 25.203125 -27.71875 C 27.460938 -29.070312 29.972656 -29.75 32.734375 -29.75 Z M 32.734375 -29.75 "/></g></g></g></svg>